<?xml version="1.0" encoding="utf-8"?>
<!-- Generator: Adobe Illustrator 17.0.0, SVG Export Plug-In . SVG Version: 6.00 Build 0)  -->
<!DOCTYPE svg PUBLIC "-//W3C//DTD SVG 1.1//EN" "http://www.w3.org/Graphics/SVG/1.1/DTD/svg11.dtd">
<svg version="1.1" xmlns="http://www.w3.org/2000/svg" xmlns:xlink="http://www.w3.org/1999/xlink" x="0px" y="0px" width="32px"
	 height="32px" viewBox="0 0 32 32" enable-background="new 0 0 32 32" xml:space="preserve">
<g id="图层_2" display="none">
	<rect x="-0.377" y="-0.66" display="inline" fill="#004174" width="32.642" height="33.208"/>
</g>
<g id="图层_12">
	<polygon fill="#FFFFFF" stroke="#FFFFFF" stroke-width="1.5" stroke-linejoin="round" stroke-miterlimit="10" points="
		22.914,29.215 6.874,15.849 22.914,2.483 23.578,3.28 8.495,15.849 23.578,28.418 	"/>
</g>
<g id="图层_11" display="none">
	<g display="inline">
		<path fill="#FFFFFF" stroke="#FFFFFF" stroke-width="0.5" stroke-miterlimit="10" d="M16.125,30.5
			C8.199,30.5,1.75,24.051,1.75,16.125S8.199,1.75,16.125,1.75S30.5,8.199,30.5,16.125S24.051,30.5,16.125,30.5z M16.125,2.856
			c-7.317,0-13.269,5.953-13.269,13.269s5.953,13.269,13.269,13.269s13.269-5.953,13.269-13.269S23.442,2.856,16.125,2.856z"/>
		
			<rect x="15.572" y="7.832" transform="matrix(0.7071 0.7071 -0.7071 0.7071 16.125 -6.6792)" fill="#FFFFFF" stroke="#FFFFFF" stroke-linecap="round" stroke-linejoin="round" stroke-miterlimit="10" width="1.106" height="16.586"/>
		
			<rect x="7.832" y="15.572" transform="matrix(0.7071 0.7071 -0.7071 0.7071 16.125 -6.6792)" fill="#FFFFFF" stroke="#FFFFFF" stroke-linecap="round" stroke-linejoin="round" stroke-miterlimit="10" width="16.586" height="1.106"/>
	</g>
</g>
<g id="图层_10" display="none">
	<path display="inline" fill="#FFFFFF" d="M22.603,3.107c-2.598,0-5.013,1.192-6.603,3.157c-1.589-1.966-4.004-3.157-6.603-3.157
		c-4.683,0-8.493,3.809-8.493,8.492c0,2.794,1.365,4.753,2.461,6.328c3.188,4.574,11.203,10.265,11.543,10.505
		c0.327,0.231,0.709,0.347,1.091,0.347c0.382,0,0.764-0.116,1.091-0.347c0.34-0.24,8.356-5.932,11.543-10.505
		c1.097-1.575,2.462-3.534,2.462-6.328C31.096,6.917,27.286,3.107,22.603,3.107z M27.083,16.847C24.048,21.201,16,26.889,16,26.889
		S7.952,21.201,4.916,16.847c-1.119-1.608-2.122-3.136-2.122-5.247c0-3.646,2.956-6.603,6.602-6.603
		c2.695,0,5.009,1.617,6.035,3.932V8.917h0.003C15.511,9.159,15.734,9.335,16,9.335c0.266,0,0.489-0.176,0.565-0.417h0.008
		c1.029-2.308,3.339-3.92,6.03-3.92c3.646,0,6.603,2.957,6.603,6.603C29.205,13.711,28.203,15.239,27.083,16.847z"/>
</g>
<g id="图层_9" display="none">
	<g display="inline">
		<g>
			<path fill="#FFFFFF" d="M11.885,7.236c-6.254,0-11.324,4.363-11.324,9.745c0,2.99,1.569,5.664,4.034,7.45l1.285,3.857
				c0.106,0.321,0.348,0.579,0.661,0.708c0.313,0.128,0.666,0.114,0.967-0.039l4.378-2.231c6.255,0,11.325-4.363,11.325-9.744
				C23.21,11.598,18.14,7.236,11.885,7.236z M11.885,24.554h-0.522l-0.464,0.236l-2.13,1.086c-0.301,0.153-0.654,0.168-0.967,0.039
				c-0.313-0.128-0.555-0.386-0.661-0.708l-0.487-1.463l-0.221-0.663l-0.565-0.409c-1.994-1.445-3.137-3.519-3.137-5.693
				c0-4.176,4.106-7.574,9.154-7.574c5.048,0,9.155,3.398,9.155,7.574C21.04,21.156,16.933,24.554,11.885,24.554z"/>
			<path fill="#FFFFFF" d="M21.606,2.918c-3.193,0-6.02,1.331-7.791,3.377c5.927,0.813,10.479,5.289,10.479,10.685
				c0,1.284-0.272,2.511-0.743,3.656l1.642,0.837c0.302,0.154,0.654,0.168,0.967,0.04c0.313-0.129,0.555-0.387,0.662-0.708
				l1.041-3.129c2.116-1.533,3.462-3.829,3.462-6.395C31.326,6.663,26.975,2.918,21.606,2.918z"/>
			<circle fill="#FFFFFF" cx="8.276" cy="16.895" r="1.263"/>
			<circle fill="#FFFFFF" cx="11.886" cy="16.895" r="1.263"/>
			<circle fill="#FFFFFF" cx="15.495" cy="16.895" r="1.263"/>
		</g>
	</g>
</g>
<g id="图层_8" display="none">
	<path display="inline" fill="#FFFFFF" d="M29.695,22.842l-6.153-6.154c-0.334-0.334-0.789-0.522-1.262-0.522
		c-0.473,0-0.927,0.188-1.261,0.522l-2.204,2.204c-0.334,0.335-0.522,0.789-0.522,1.262c0,0.196,0.032,0.388,0.094,0.57
		l-0.137,0.138c-2.332-1.993-5.131-4.793-7.122-7.127l0.135-0.135c0.185,0.063,0.378,0.093,0.571,0.093
		c0.456,0,0.913-0.174,1.261-0.522l2.205-2.203c0.334-0.334,0.522-0.788,0.522-1.262c0-0.473-0.188-0.927-0.522-1.262L9.144,2.291
		C8.796,1.943,8.339,1.769,7.882,1.769c-0.456,0-0.913,0.174-1.261,0.522L4.417,4.495C4.083,4.829,3.895,5.284,3.895,5.757
		c0,0.274,0.063,0.54,0.181,0.781C3.369,7.546,2.635,8.59,2.434,8.871C1.668,9.741,1.563,11,2.191,11.993
		C6.33,18.52,13.496,25.686,20.023,29.825c0.42,0.266,0.903,0.406,1.398,0.406c0.634,0,1.256-0.236,1.73-0.653
		c0.265-0.194,1.306-0.941,2.31-1.66c0.242,0.116,0.506,0.173,0.769,0.173c0.456,0,0.913-0.174,1.261-0.522l2.204-2.203
		c0.334-0.334,0.523-0.788,0.523-1.262C30.218,23.631,30.03,23.177,29.695,22.842z M26.32,26.218l-3.035-3.035
		c-0.232-0.232-0.609-0.232-0.841,0c-0.233,0.233-0.233,0.609,0,0.841l2.25,2.25c-1.046,0.748-2.657,1.903-2.686,1.931
		c-0.158,0.158-0.371,0.242-0.587,0.242c-0.152,0-0.305-0.041-0.443-0.128C14.69,24.33,7.686,17.327,3.699,11.039
		c-0.211-0.334-0.155-0.762,0.114-1.031C3.842,9.979,4.981,8.354,5.72,7.3l0.697,0.696c0.116,0.116,0.268,0.175,0.42,0.175
		c0.152,0,0.304-0.058,0.42-0.175c0.232-0.232,0.232-0.608,0-0.841L5.769,5.667l2.113-2.113l6.154,6.153l-2.114,2.113L8.7,8.597
		c-0.233-0.232-0.609-0.232-0.841,0c-0.233,0.233-0.233,0.609,0,0.842l2.521,2.521l-1.656,1.655
		c2.345,3.007,6.639,7.304,9.644,9.651l1.659-1.659l0.975,0.975c0.116,0.116,0.268,0.174,0.42,0.174c0.152,0,0.305-0.058,0.42-0.174
		c0.233-0.232,0.233-0.609,0-0.841l-1.676-1.676l2.113-2.114l6.153,6.154L26.32,26.218z"/>
</g>
<g id="图层_7" display="none">
	<g display="inline">
		<path fill="#FFFFFF" d="M20.952,2.125H10.934c-4.889,0-8.867,3.978-8.867,8.867v10.017c0,4.889,3.977,8.867,8.867,8.867h10.018
			c4.889,0,8.866-3.977,8.866-8.867V10.991C29.819,6.102,25.841,2.125,20.952,2.125z M28.069,21.009
			c0,3.931-3.186,7.117-7.116,7.117H10.934c-3.93,0-7.116-3.186-7.116-7.117V10.991c0-3.93,3.186-7.116,7.116-7.116h10.018
			c3.93,0,7.116,3.186,7.116,7.116V21.009z"/>
		<path fill="#FFFFFF" stroke="#FFFFFF" stroke-miterlimit="10" d="M21.068,11.987c0-2.931-2.384-5.316-5.315-5.316
			c-2.931,0-5.315,2.385-5.315,5.316c0,0.376,0.305,0.681,0.681,0.681c0.376,0,0.681-0.306,0.681-0.681
			c0-2.18,1.773-3.953,3.953-3.953s3.953,1.773,3.953,3.953c0,1.398-0.895,2.81-2.081,3.284c-1.096,0.438-2.552,1.216-2.552,2.907
			c0,0.376,0.305,0.681,0.681,0.681c0.376,0,0.681-0.305,0.681-0.681c0-0.477,0.202-1.045,1.696-1.642
			C19.832,15.855,21.068,13.942,21.068,11.987z"/>
		<circle fill="#FFFFFF" stroke="#FFFFFF" stroke-miterlimit="10" cx="15.752" cy="22.916" r="1.288"/>
	</g>
</g>
<g id="图层_6" display="none">
	<g display="inline">
		<path fill="#FFFFFF" d="M27.087,8.35H6.541c-0.256,0-0.498,0.116-0.658,0.317c-0.16,0.2-0.22,0.462-0.164,0.712l1.835,8.129
			c0,0.006-0.002,0.011-0.002,0.016c0,0.091,0.024,0.176,0.062,0.252l1.013,4.489c0.087,0.384,0.429,0.657,0.823,0.657h14.729
			c0.394,0,0.736-0.273,0.823-0.657l2.908-12.886c0.056-0.25-0.004-0.512-0.164-0.712C27.585,8.466,27.343,8.35,27.087,8.35z
			 M13.861,21.235l-0.385-3.151h2.619v3.151H13.861z M13.338,16.961l-0.329-2.692h3.086v2.692H13.338z M8.551,14.269h3.326
			l0.329,2.692H9.159L8.551,14.269z M12.872,13.145l-0.38-3.109h3.603v3.109H12.872z M11.361,10.035l0.38,3.109H8.297l-0.702-3.109
			H11.361z M9.412,18.084h2.931l0.385,3.151h-2.605L9.412,18.084z M23.505,21.235h-6.286v-3.151h3.827
			c0.31,0,0.562-0.252,0.562-0.562c0-0.31-0.252-0.562-0.562-0.562h-3.827v-2.692h4.955c0.31,0,0.562-0.252,0.562-0.562
			c0-0.31-0.252-0.562-0.562-0.562h-4.955v-3.109h8.813L23.505,21.235z"/>
		<path fill="#FFFFFF" d="M12.583,24.263c-1.551,0-2.813,1.262-2.813,2.813c0,1.551,1.262,2.813,2.813,2.813
			c1.551,0,2.812-1.262,2.812-2.813C15.395,25.525,14.133,24.263,12.583,24.263z M12.583,28.203c-0.622,0-1.127-0.505-1.127-1.127
			c0-0.622,0.505-1.127,1.127-1.127c0.621,0,1.126,0.505,1.126,1.127C13.709,27.698,13.203,28.203,12.583,28.203z"/>
		<path fill="#FFFFFF" d="M21.046,24.263c-1.551,0-2.813,1.262-2.813,2.813c0,1.551,1.262,2.813,2.813,2.813
			c1.551,0,2.813-1.262,2.813-2.813C23.859,25.525,22.597,24.263,21.046,24.263z M21.046,28.203c-0.621,0-1.127-0.505-1.127-1.127
			c0-0.622,0.506-1.127,1.127-1.127c0.622,0,1.127,0.505,1.127,1.127C22.173,27.698,21.668,28.203,21.046,28.203z"/>
		<path fill="#FFFFFF" d="M27.811,5.55H6.629L6.203,3.662c-0.005-0.021-0.014-0.04-0.02-0.061C6.173,3.57,6.165,3.539,6.152,3.509
			C6.141,3.485,6.127,3.462,6.114,3.439C6.1,3.415,6.088,3.39,6.072,3.368C6.057,3.345,6.038,3.325,6.02,3.304
			C6.002,3.284,5.986,3.262,5.966,3.243C5.949,3.226,5.929,3.212,5.91,3.197C5.887,3.178,5.864,3.158,5.839,3.141
			c-0.018-0.012-0.037-0.02-0.056-0.03C5.754,3.095,5.725,3.079,5.694,3.066c-0.019-0.007-0.04-0.012-0.06-0.018
			C5.602,3.037,5.571,3.027,5.537,3.02C5.512,3.016,5.485,3.015,5.459,3.012S5.407,3.004,5.38,3.004H2.477
			c-0.465,0-0.843,0.377-0.843,0.843c0,0.466,0.377,0.843,0.843,0.843h2.23l0.426,1.889c0.011,0.049,0.026,0.097,0.045,0.141
			C5.18,6.724,5.182,6.728,5.184,6.732c0.019,0.044,0.042,0.086,0.068,0.125C5.261,6.869,5.27,6.88,5.279,6.893
			C5.301,6.922,5.323,6.95,5.347,6.976c0.013,0.013,0.027,0.025,0.041,0.038c0.024,0.021,0.048,0.042,0.074,0.061
			c0.017,0.012,0.033,0.023,0.05,0.033c0.027,0.017,0.054,0.031,0.082,0.045C5.612,7.161,5.63,7.17,5.649,7.177
			c0.033,0.012,0.066,0.022,0.1,0.031C5.765,7.212,5.78,7.217,5.796,7.22C5.848,7.23,5.9,7.236,5.954,7.236c0.001,0,0.002,0,0.002,0
			h21.855c0.466,0,0.843-0.377,0.843-0.843C28.655,5.928,28.277,5.55,27.811,5.55z"/>
	</g>
</g>
<g id="图层_5" display="none">
	
		<circle display="inline" fill="none" stroke="#FFFFFF" stroke-width="1.5" stroke-linecap="round" stroke-linejoin="round" stroke-miterlimit="10" cx="12.061" cy="12.778" r="9.175"/>
	
		<circle display="inline" fill="none" stroke="#FFFFFF" stroke-width="1.5" stroke-linecap="round" stroke-linejoin="round" stroke-miterlimit="10" cx="12.09" cy="12.689" r="6.546"/>
	<g display="inline">
		
			<path fill="none" stroke="#FFFFFF" stroke-width="1.5" stroke-linecap="round" stroke-linejoin="round" stroke-miterlimit="10" d="
			M19.956,17.45l7.415,7.431c0.777,0.779,0.777,2.053,0.001,2.833l-0.39,0.391c-0.776,0.779-2.048,0.781-2.827,0.003l-7.443-7.436"
			/>
	</g>
	
		<line display="inline" fill="none" stroke="#FFFFFF" stroke-width="1.5" stroke-linecap="round" stroke-linejoin="round" stroke-miterlimit="10" x1="23.897" y1="27.43" x2="26.63" y2="24.697"/>
	
		<line display="inline" fill="none" stroke="#FFFFFF" stroke-width="1.5" stroke-linecap="round" stroke-linejoin="round" stroke-miterlimit="10" x1="22.146" y1="25.748" x2="24.879" y2="23.015"/>
	<path display="inline" fill="#FFFFFF" d="M11.732,7.853l0.056,1.222L11.7,9.08c-2.044,0.092-3.623,1.829-3.532,3.863l0.002,0.039
		l-1.095,0.049c-0.012-0.029-0.014-0.067-0.016-0.098c-0.059-1.34,0.435-2.577,1.275-3.498c0.841-0.919,2.028-1.521,3.368-1.581
		L11.732,7.853z"/>
</g>
<g id="图层_3" display="none">
	
		<line display="inline" fill="#FFFFFF" stroke="#FFFFFF" stroke-width="1.5" stroke-linecap="round" stroke-linejoin="round" stroke-miterlimit="10" x1="10.903" y1="6.62" x2="28.796" y2="6.62"/>
	
		<line display="inline" fill="#FFFFFF" stroke="#FFFFFF" stroke-width="1.5" stroke-linecap="round" stroke-linejoin="round" stroke-miterlimit="10" x1="11.072" y1="15.412" x2="28.965" y2="15.412"/>
	
		<line display="inline" fill="#FFFFFF" stroke="#FFFFFF" stroke-width="1.5" stroke-linecap="round" stroke-linejoin="round" stroke-miterlimit="10" x1="11.157" y1="24.412" x2="28.879" y2="24.412"/>
	
		<line display="inline" fill="#FFFFFF" stroke="#FFFFFF" stroke-linejoin="round" stroke-miterlimit="10" x1="7.861" y1="9.074" x2="2.958" y2="9.074"/>
	
		<rect x="2.906" y="4.167" display="inline" fill="#FFFFFF" stroke="#FFFFFF" stroke-width="1.5" stroke-linejoin="round" stroke-miterlimit="10" width="4.955" height="4.907"/>
	
		<rect x="2.906" y="12.958" display="inline" fill="#FFFFFF" stroke="#FFFFFF" stroke-width="1.5" stroke-linejoin="round" stroke-miterlimit="10" width="4.955" height="4.907"/>
	
		<rect x="2.933" y="21.958" display="inline" fill="#FFFFFF" stroke="#FFFFFF" stroke-width="1.5" stroke-linejoin="round" stroke-miterlimit="10" width="4.955" height="4.907"/>
</g>
<g id="图层_3_x5F_复制" display="none">
	
		<rect x="2.906" y="4.166" display="inline" fill="none" stroke="#FFFFFF" stroke-width="1.5" stroke-linejoin="round" stroke-miterlimit="10" width="26.213" height="13.161"/>
	
		<rect x="2.933" y="21.958" display="inline" fill="none" stroke="#FFFFFF" stroke-width="1.5" stroke-linejoin="round" stroke-miterlimit="10" width="26.187" height="4.907"/>
</g>
<g id="图层_1" display="none">
	<g display="inline">
		<path fill="none" stroke="#221F20" stroke-width="1.5" stroke-miterlimit="10" d="M20.73,22.062"/>
		<path fill="none" stroke="#221F20" stroke-width="1.5" stroke-miterlimit="10" d="M13.746,28.239"/>
		<path fill="none" stroke="#221F20" stroke-width="1.5" stroke-miterlimit="10" d="M11.132,22.089"/>
		<path fill="none" stroke="#221F20" stroke-width="1.5" stroke-miterlimit="10" d="M10.409,22.075"/>
		<g>
			<path fill="none" stroke="#FFFFFF" stroke-width="1.5" stroke-miterlimit="10" d="M16.167,26.972c0,0-0.048,0.031-0.107,0.069
				c-0.059,0.038-0.851-0.437-1.76-1.056l-4.112-2.799c-0.909-0.619-2.553-1.125-3.653-1.125h-2.91c-1.1,0-1.999-0.9-1.999-2
				l0.008-11.86c0.001-1.1,0.901-2,2.001-2h12.039"/>
		</g>
		<g>
			<path fill="none" stroke="#FFFFFF" stroke-width="1.5" stroke-miterlimit="10" d="M15.157,6.202h13.386c1.1,0,2,0.9,2,2v11.86
				c0,1.1-0.9,2-2,2h-2.91c-1.1,0-2.744,0.506-3.653,1.125l-4.112,2.799c-0.909,0.619-1.702,1.094-1.76,1.056
				c-0.059-0.038-0.107-0.069-0.107-0.069"/>
		</g>
		<path fill="none" stroke="#221F20" stroke-width="1.5" stroke-miterlimit="10" d="M23.185,6.21"/>
		<path fill="none" stroke="#221F20" stroke-width="1.5" stroke-miterlimit="10" d="M7.61,6.21"/>
		<path fill="#FFFFFF" stroke="#FFFFFF" stroke-miterlimit="10" d="M10.85,14.328c0,1.287-1.043,2.329-2.329,2.329l0,0
			c-1.287,0-2.329-1.042-2.329-2.329l0,0c0-1.287,1.043-2.33,2.329-2.33l0,0C9.807,11.998,10.85,13.041,10.85,14.328L10.85,14.328z"
			/>
		<path fill="#FFFFFF" stroke="#FFFFFF" stroke-miterlimit="10" d="M18.446,14.227c0,1.287-1.043,2.329-2.329,2.329l0,0
			c-1.287,0-2.329-1.042-2.329-2.329l0,0c0-1.287,1.043-2.33,2.329-2.33l0,0C17.403,11.897,18.446,12.94,18.446,14.227
			L18.446,14.227z"/>
		<path fill="#FFFFFF" stroke="#FFFFFF" stroke-miterlimit="10" d="M26.143,14.328c0,1.287-1.043,2.329-2.329,2.329l0,0
			c-1.287,0-2.329-1.042-2.329-2.329l0,0c0-1.287,1.043-2.33,2.329-2.33l0,0C25.1,11.998,26.143,13.041,26.143,14.328L26.143,14.328
			z"/>
	</g>
</g>
</svg>
