<?xml version="1.0" encoding="utf-8"?>
<!-- Generator: Adobe Illustrator 16.0.0, SVG Export Plug-In . SVG Version: 6.00 Build 0)  -->
<!DOCTYPE svg PUBLIC "-//W3C//DTD SVG 1.1//EN" "http://www.w3.org/Graphics/SVG/1.1/DTD/svg11.dtd">
<svg version="1.1" id="图层_1" xmlns="http://www.w3.org/2000/svg" xmlns:xlink="http://www.w3.org/1999/xlink" x="0px" y="0px"
	 width="60px" height="60px" viewBox="0 0 60 60" enable-background="new 0 0 60 60" xml:space="preserve">
<g>
	<path fill="#fff" d="M53.065,14.597H12.651c-0.503,0-0.979,0.229-1.294,0.623c-0.315,0.394-0.433,0.908-0.323,1.399
		l3.609,15.989c0,0.012-0.003,0.021-0.003,0.032c0,0.178,0.047,0.346,0.123,0.495l1.993,8.83c0.172,0.756,0.843,1.292,1.618,1.292
		h28.973c0.774,0,1.446-0.536,1.617-1.292l5.72-25.347c0.11-0.491-0.008-1.006-0.323-1.399
		C54.046,14.825,53.569,14.597,53.065,14.597z M27.05,39.942l-0.757-6.197h5.152v6.197H27.05z M26.022,31.535l-0.646-5.296h6.069
		v5.296H26.022z M16.606,26.239h6.543l0.647,5.296h-5.995L16.606,26.239z M25.106,24.028l-0.747-6.116h7.086v6.116H25.106z
		 M22.132,17.913l0.747,6.116h-6.772l-1.38-6.116H22.132z M18.3,33.745h5.766l0.757,6.197h-5.124L18.3,33.745z M46.02,39.942H33.656
		v-6.197h7.527c0.609,0,1.104-0.495,1.104-1.104c0-0.611-0.495-1.105-1.104-1.105h-7.527v-5.296h9.745
		c0.61,0,1.105-0.495,1.105-1.105c0-0.61-0.495-1.105-1.105-1.105h-9.745v-6.116h17.335L46.02,39.942z"/>
	<path fill="#fff" d="M24.536,45.899c-3.051,0-5.533,2.481-5.533,5.532s2.482,5.532,5.533,5.532c3.05,0,5.532-2.481,5.532-5.532
		S27.586,45.899,24.536,45.899z M24.536,53.648c-1.223,0-2.217-0.994-2.217-2.217c0-1.224,0.994-2.218,2.217-2.218
		c1.222,0,2.215,0.994,2.215,2.218C26.751,52.654,25.757,53.648,24.536,53.648z"/>
	<path fill="#fff" d="M41.184,45.899c-3.052,0-5.533,2.481-5.533,5.532s2.481,5.532,5.533,5.532c3.051,0,5.532-2.481,5.532-5.532
		S44.234,45.899,41.184,45.899z M41.184,53.648c-1.223,0-2.218-0.994-2.218-2.217c0-1.224,0.995-2.218,2.218-2.218
		s2.217,0.994,2.217,2.218C43.4,52.654,42.406,53.648,41.184,53.648z"/>
	<path fill="#fff" d="M54.49,9.091H12.825l-0.838-3.715c-0.009-0.042-0.027-0.079-0.04-0.119
		c-0.019-0.061-0.035-0.123-0.06-0.181c-0.022-0.048-0.049-0.092-0.075-0.139c-0.027-0.047-0.05-0.096-0.082-0.14
		c-0.03-0.045-0.067-0.084-0.102-0.125c-0.036-0.04-0.068-0.083-0.106-0.12c-0.035-0.034-0.074-0.061-0.111-0.091
		c-0.045-0.038-0.09-0.077-0.14-0.109c-0.035-0.023-0.073-0.04-0.109-0.06c-0.058-0.032-0.114-0.064-0.175-0.089
		c-0.038-0.015-0.079-0.023-0.118-0.036c-0.063-0.021-0.124-0.041-0.19-0.053c-0.05-0.01-0.103-0.011-0.154-0.016
		c-0.052-0.005-0.102-0.016-0.154-0.016H4.658C3.742,4.083,3,4.825,3,5.741c0,0.916,0.742,1.658,1.658,1.658h4.386l0.838,3.715
		c0.022,0.096,0.052,0.189,0.089,0.278c0.003,0.007,0.008,0.014,0.012,0.021c0.037,0.087,0.083,0.169,0.133,0.247
		c0.017,0.024,0.036,0.046,0.054,0.071c0.042,0.057,0.085,0.112,0.134,0.163c0.026,0.026,0.053,0.05,0.08,0.075
		c0.046,0.042,0.094,0.083,0.145,0.119c0.033,0.024,0.065,0.045,0.099,0.066c0.053,0.033,0.106,0.062,0.161,0.087
		c0.036,0.019,0.071,0.035,0.109,0.049c0.064,0.024,0.129,0.043,0.196,0.06c0.032,0.008,0.062,0.019,0.093,0.025
		c0.102,0.02,0.205,0.032,0.311,0.032c0.002,0,0.004,0,0.005,0H54.49c0.916,0,1.659-0.742,1.659-1.658
		C56.149,9.833,55.406,9.091,54.49,9.091z"/>
</g>
</svg>
