<?xml version="1.0" encoding="utf-8"?>
<!-- Generator: Adobe Illustrator 16.0.0, SVG Export Plug-In . SVG Version: 6.00 Build 0)  -->
<!DOCTYPE svg PUBLIC "-//W3C//DTD SVG 1.1//EN" "http://www.w3.org/Graphics/SVG/1.1/DTD/svg11.dtd">
<svg version="1.1" id="图层_1" xmlns="http://www.w3.org/2000/svg" xmlns:xlink="http://www.w3.org/1999/xlink" x="0px" y="0px"
	 width="60px" height="60px" viewBox="0 0 60 60" enable-background="new 0 0 60 60" xml:space="preserve">
<path fill="#DFC495" stroke="#DFC495" stroke-width="2" stroke-miterlimit="10" d="M8.206,52.242L9.523,41.7
	c-3.741-4.012-5.796-9.016-5.796-14.147c0-12.584,12.086-22.823,26.941-22.823c14.855,0,26.94,10.239,26.94,22.823
	c0,12.585-12.085,22.825-26.94,22.825c-4.372,0-8.698-0.906-12.549-2.625L8.206,52.242z M30.669,6.858
	c-13.682,0-24.813,9.284-24.813,20.695c0,4.733,1.971,9.362,5.547,13.035l0.357,0.368l-0.972,7.78l6.89-3.12l0.384,0.846
	l0.498-0.848c3.683,1.723,7.871,2.635,12.108,2.635c13.681,0,24.813-9.284,24.813-20.696C55.481,16.142,44.35,6.858,30.669,6.858"/>
<circle fill="#DFC495" stroke="#DFC495" stroke-width="2" stroke-miterlimit="10" cx="16.813" cy="26.938" r="3.813"/>
<circle fill="#DFC495" stroke="#DFC495" stroke-width="2" stroke-miterlimit="10" cx="30.813" cy="26.938" r="3.813"/>
<circle fill="#DFC495" stroke="#DFC495" stroke-width="2" stroke-miterlimit="10" cx="45.813" cy="26.938" r="3.813"/>
</svg>
