<?xml version="1.0" encoding="utf-8"?>
<!-- Generator: Adobe Illustrator 16.0.0, SVG Export Plug-In . SVG Version: 6.00 Build 0)  -->
<!DOCTYPE svg PUBLIC "-//W3C//DTD SVG 1.1//EN" "http://www.w3.org/Graphics/SVG/1.1/DTD/svg11.dtd">
<svg version="1.1" id="图层_1" xmlns="http://www.w3.org/2000/svg" xmlns:xlink="http://www.w3.org/1999/xlink" x="0px" y="0px"
	 width="60px" height="60px" viewBox="0 0 60 60" enable-background="new 0 0 60 60" xml:space="preserve">
<path fill="#FFFFFF" d="M56.868,21.013L31.717,7.121c-0.467-0.257-0.968-0.386-1.467-0.386s-1,0.129-1.466,0.386L3.632,21.013
	C2.335,21.729,1.5,23.322,1.5,25.079c0,1.59,0.688,3.041,1.779,3.833c0.33,0.472,0.705,0.835,1.013,1.127
	c0.681,0.642,0.864,0.882,0.864,1.343c0,0.461-0.183,0.701-0.864,1.343c-0.718,0.68-1.806,1.706-1.806,3.703
	c0,1.995,1.088,3.022,1.806,3.703c0.493,0.466,0.723,0.719,0.814,1c-1.12,0.113-2.041,1.169-2.185,2.57L2.289,49.85
	c-0.087,0.845,0.123,1.696,0.579,2.336c0.455,0.642,1.111,1.008,1.801,1.008h3.449c0.689,0,1.344-0.366,1.799-1.008
	c0.456-0.64,0.667-1.49,0.579-2.336l-0.632-6.147c-0.15-1.462-1.145-2.559-2.332-2.588c-0.125-1.755-1.109-2.707-1.782-3.344
	c-0.68-0.641-0.864-0.881-0.864-1.342c0-0.462,0.185-0.701,0.863-1.343c0.721-0.68,1.808-1.707,1.808-3.703
	c0-0.024-0.004-0.044-0.004-0.067l4.26,2.355c-0.02,0.184-0.04,0.366-0.04,0.553v11.672c0,8.446,13.087,9.357,18.715,9.357
	c5.626,0,18.713-0.911,18.713-9.357V33.997c0-0.203-0.016-0.403-0.037-0.601l7.703-4.249C58.164,28.433,59,26.839,59,25.082
	C59,23.323,58.165,21.729,56.868,21.013z M4.668,50.225l0.633-6.146h2.182l0.633,6.146H4.668z M45.602,40.951
	c-0.636,0.995-2.196,2.166-4.837,3.1c-0.476,0.167-0.985,0.327-1.517,0.475c-0.646,0.181-1.053,0.975-0.907,1.773
	c0.126,0.691,0.621,1.16,1.169,1.16c0.087,0,0.177-0.012,0.265-0.036c0.575-0.159,1.13-0.334,1.649-0.519
	c1.688-0.597,3.088-1.321,4.178-2.149v1.141c0,2.709-6.769,4.904-15.115,4.904c-8.35,0-15.117-2.195-15.117-4.904v-1.222
	c3.293,2.581,9.263,3.912,15.187,3.912c1.383,0,2.754-0.07,4.077-0.211c0.66-0.071,1.149-0.789,1.094-1.607
	c-0.057-0.815-0.638-1.427-1.299-1.351c-1.255,0.132-2.557,0.199-3.872,0.199c-8.415,0-14.096-2.684-15.187-4.895V35.64
	l13.373,7.398c0.467,0.259,0.968,0.387,1.468,0.387c0.499,0,0.998-0.128,1.464-0.385l13.927-7.68V40.951z M30.211,38.972
	L5.098,25.08L30.25,11.188L55.402,25.08L30.211,38.972z"/>
</svg>
