<?xml version="1.0" encoding="utf-8"?>
<!-- Generator: Adobe Illustrator 16.0.0, SVG Export Plug-In . SVG Version: 6.00 Build 0)  -->
<!DOCTYPE svg PUBLIC "-//W3C//DTD SVG 1.1//EN" "http://www.w3.org/Graphics/SVG/1.1/DTD/svg11.dtd">
<svg version="1.1" id="图层_1" xmlns="http://www.w3.org/2000/svg" xmlns:xlink="http://www.w3.org/1999/xlink" x="0px" y="0px"
	 width="60px" height="60px" viewBox="0 0 60 60" enable-background="new 0 0 60 60" xml:space="preserve">
<g>
	<g>
		<g>
			<path fill="#CDCDCD" d="M44.488,26.229c0-4.276-3.465-7.741-7.738-7.741c-2.79,0-5.229,1.483-6.591,3.698
				c-1.361-2.214-3.799-3.698-6.589-3.698c-4.275,0-7.736,3.465-7.736,7.741c0,2.326,1.03,4.408,2.655,5.826l10.964,10.967
				c0.188,0.188,0.441,0.293,0.706,0.293c0.266,0,0.521-0.104,0.708-0.293l10.964-10.967C43.459,30.637,44.488,28.555,44.488,26.229
				L44.488,26.229z"/>
		</g>
	</g>
</g>
</svg>
