<?xml version="1.0" encoding="utf-8"?>
<!-- Generator: Adobe Illustrator 16.0.0, SVG Export Plug-In . SVG Version: 6.00 Build 0)  -->
<!DOCTYPE svg PUBLIC "-//W3C//DTD SVG 1.1//EN" "http://www.w3.org/Graphics/SVG/1.1/DTD/svg11.dtd">
<svg version="1.1" id="图层_1" xmlns="http://www.w3.org/2000/svg" xmlns:xlink="http://www.w3.org/1999/xlink" x="0px" y="0px"
	 width="32px" height="32px" viewBox="0 0 32 32" enable-background="new 0 0 32 32" xml:space="preserve">
<g>
	<g>
		<g>
			<path fill="#CDCDCD" stroke="#FCFCFC" stroke-width="2" stroke-miterlimit="10" d="M30.489,12.229
				c0-4.276-3.465-7.741-7.739-7.741c-2.79,0-5.229,1.483-6.591,3.698C14.798,5.972,12.36,4.488,9.57,4.488
				c-4.275,0-7.736,3.465-7.736,7.741c0,2.326,1.03,4.408,2.655,5.825l10.964,10.968c0.188,0.188,0.441,0.292,0.706,0.292
				c0.266,0,0.521-0.104,0.708-0.292l10.964-10.968C29.459,16.637,30.489,14.555,30.489,12.229L30.489,12.229z"/>
		</g>
	</g>
</g>
</svg>
