<?xml version="1.0" encoding="utf-8"?>
<!-- Generator: Adobe Illustrator 16.0.0, SVG Export Plug-In . SVG Version: 6.00 Build 0)  -->
<!DOCTYPE svg PUBLIC "-//W3C//DTD SVG 1.1//EN" "http://www.w3.org/Graphics/SVG/1.1/DTD/svg11.dtd">
<svg version="1.1" id="图层_1" xmlns="http://www.w3.org/2000/svg" xmlns:xlink="http://www.w3.org/1999/xlink" x="0px" y="0px"
	 width="32px" height="32px" viewBox="0 0 32 32" enable-background="new 0 0 32 32" xml:space="preserve">
<g>
	<g>
		<g>
			<path fill="#F3143E" d="M31,11.699c0-4.45-3.606-8.056-8.054-8.056c-2.904,0-5.442,1.543-6.859,3.849
				c-1.417-2.305-3.954-3.849-6.858-3.849c-4.449,0-8.051,3.606-8.051,8.056c0,2.421,1.072,4.587,2.763,6.062l11.411,11.415
				c0.197,0.194,0.461,0.304,0.735,0.304c0.277,0,0.542-0.109,0.737-0.304l11.41-11.415C29.928,16.286,31,14.12,31,11.699L31,11.699
				z"/>
		</g>
	</g>
</g>
</svg>
