<?xml version="1.0" encoding="utf-8"?>
<!-- Generator: Adobe Illustrator 16.0.0, SVG Export Plug-In . SVG Version: 6.00 Build 0)  -->
<!DOCTYPE svg PUBLIC "-//W3C//DTD SVG 1.1//EN" "http://www.w3.org/Graphics/SVG/1.1/DTD/svg11.dtd">
<svg version="1.1" id="图层_1" xmlns="http://www.w3.org/2000/svg" xmlns:xlink="http://www.w3.org/1999/xlink" x="0px" y="0px"
	 width="60px" height="60px" viewBox="0 0 60 60" enable-background="new 0 0 60 60" xml:space="preserve">
<g>
	<g>
		<g>
			<path fill="#CDCDCD" stroke="#FCFCFC" stroke-width="2" stroke-miterlimit="10" d="M56.859,22.119
				c0-8.015-6.496-14.51-14.508-14.51c-5.23,0-9.802,2.779-12.355,6.932c-2.551-4.152-7.122-6.932-12.352-6.932
				c-8.014,0-14.503,6.495-14.503,14.51c0,4.36,1.931,8.263,4.977,10.919L28.673,53.6c0.353,0.35,0.828,0.547,1.324,0.547
				c0.499,0,0.976-0.197,1.327-0.547l20.555-20.562C54.928,30.382,56.859,26.479,56.859,22.119L56.859,22.119z"/>
		</g>
	</g>
</g>
</svg>
