<?xml version="1.0" encoding="utf-8"?>
<!-- Generator: Adobe Illustrator 16.0.0, SVG Export Plug-In . SVG Version: 6.00 Build 0)  -->
<!DOCTYPE svg PUBLIC "-//W3C//DTD SVG 1.1//EN" "http://www.w3.org/Graphics/SVG/1.1/DTD/svg11.dtd">
<svg version="1.1" id="图层_1" xmlns="http://www.w3.org/2000/svg" xmlns:xlink="http://www.w3.org/1999/xlink" x="0px" y="0px"
	 width="60px" height="60px" viewBox="0 0 60 60" enable-background="new 0 0 60 60" xml:space="preserve">
<path fill="#e3c897" d="M8.936,50.908l1.238-9.906c-3.516-3.77-5.446-8.471-5.446-13.293c0-11.826,11.357-21.447,25.316-21.447
	s25.315,9.621,25.315,21.447c0,11.827-11.356,21.448-25.315,21.448c-4.108,0-8.174-0.852-11.792-2.467L8.936,50.908z M30.044,8.262
	c-12.856,0-23.316,8.724-23.316,19.447c0,4.448,1.853,8.797,5.213,12.249l0.336,0.346l-0.913,7.313l7.303-2.936l-0.468,0.797
	l0.468-0.797c3.461,1.619,7.396,2.477,11.378,2.477c12.855,0,23.315-8.725,23.315-19.448C53.359,16.986,42.899,8.262,30.044,8.262"
	/>
<circle fill="#e3c897" cx="19.821" cy="27.502" r="2.5"/>
<path fill="#e3c897" d="M27.321,27.502c0,1.381,1.119,2.5,2.5,2.5s2.5-1.119,2.5-2.5s-1.119-2.5-2.5-2.5
	S27.321,26.121,27.321,27.502"/>
<path fill="#e3c897" d="M37.321,27.502c0,1.381,1.119,2.5,2.5,2.5s2.5-1.119,2.5-2.5s-1.119-2.5-2.5-2.5
	S37.321,26.121,37.321,27.502"/>
</svg>
