<?xml version="1.0" encoding="utf-8"?>
<!-- Generator: Adobe Illustrator 16.0.0, SVG Export Plug-In . SVG Version: 6.00 Build 0)  -->
<!DOCTYPE svg PUBLIC "-//W3C//DTD SVG 1.1//EN" "http://www.w3.org/Graphics/SVG/1.1/DTD/svg11.dtd">
<svg version="1.1" id="图层_1" xmlns="http://www.w3.org/2000/svg" xmlns:xlink="http://www.w3.org/1999/xlink" x="0px" y="0px"
	 width="60px" height="60px" viewBox="0 0 60 60" enable-background="new 0 0 60 60" xml:space="preserve">
<path fill="#F3143E" stroke="#F3143E" stroke-miterlimit="10" d="M16.873,56.668H9.459c-0.948,0-3.833,0-3.833-2.832L4.627,31.734
	c-0.001-2.878,2.884-2.878,3.832-2.878H14.9c0.745,0,2.694,0,3.474,1.39c3.556-3.067,6.704-13.14,6.704-15.682
	c0-0.47-0.027-1.002-0.055-1.562C24.905,10.61,24.77,7.9,26.226,6.371c0.653-0.688,1.536-1.036,2.623-1.036
	c4.172,0,6.719,4.239,7.079,8.428c0.381,4.448,0.329,7.732-0.148,9.801h15.592c3.082,0,5.588,2.507,5.588,5.589
	c0,1.938-1.014,3.645-2.578,4.558c0.446,0.846,0.689,1.785,0.689,2.705c0,2.255-1.396,4.169-3.346,4.92
	c0.481,0.87,0.75,1.852,0.75,2.814c0,2.02-1.064,3.763-2.729,4.649c0.088,0.397,0.133,0.798,0.133,1.196v0.25
	c0,2.791-2.271,5.063-5.063,5.063H22.822c-0.777,0-1.543-0.188-2.243-0.539C20.016,56.668,17.702,56.668,16.873,56.668
	 M8.459,30.855c-1.833,0-1.833,0.406-1.833,0.834l1,22.102c0,0.473,0,0.877,1.833,0.877h7.413c1.833,0,1.833-0.404,1.833-0.832
	v-3.602l1.746,1.959c0.632,0.707,1.496,1.115,2.371,1.115h21.995c1.688,0,3.063-1.373,3.063-3.063v-0.25
	c0-0.454-0.1-0.936-0.283-1.393l-0.408-1.012l1.043-0.318c1.342-0.412,2.246-1.635,2.246-3.039c0-1.08-0.447-2.113-1.193-2.848
	l-1.692-1.662l2.371-0.051c1.716-0.037,3.11-1.462,3.11-3.176c0-0.959-0.348-1.873-0.953-2.589l-1.014-1.198l1.514-0.412
	c1.38-0.377,2.341-1.636,2.341-3.063c0-2.063-1.608-3.673-3.588-3.673H32.73l0.768-1.464c0.338-0.645,1.057-2.927,0.438-10.166
	c-0.229-2.653-1.77-6.599-5.085-6.599c-0.699,0-1.005,0.236-1.175,0.414c-0.864,0.909-0.742,3.362-0.653,5.153
	c0.029,0.596,0.057,1.162,0.057,1.662c0,3.281-3.849,15.466-8.555,18.005l-0.222,0.119h-1.596v-1c0-0.441,0-0.832-1.805-0.832H8.459
	L8.459,30.855z"/>
</svg>
