<?xml version="1.0" encoding="utf-8"?>
<!-- Generator: Adobe Illustrator 16.0.0, SVG Export Plug-In . SVG Version: 6.00 Build 0)  -->
<!DOCTYPE svg PUBLIC "-//W3C//DTD SVG 1.1//EN" "http://www.w3.org/Graphics/SVG/1.1/DTD/svg11.dtd">
<svg version="1.1" id="图层_1" xmlns="http://www.w3.org/2000/svg" xmlns:xlink="http://www.w3.org/1999/xlink" x="0px" y="0px"
	 width="60px" height="60px" viewBox="0 0 60 60" enable-background="new 0 0 60 60" xml:space="preserve">
<path fill="#fff" d="M37.509,4.443c2.373,0,4.979,2.606,4.979,4.979v13.956c0,2.371-2.605,4.977-4.979,4.977H20.064
	c-0.529,0-1.039,0.211-1.414,0.586l-7.053,7.053v-5.639c0-1.104-0.895-2-2-2c-2.372,0-4.977-2.605-4.977-4.977V9.422
	c0-2.372,2.604-4.979,4.977-4.979H37.509 M51.465,21.889c2.373,0,4.979,2.604,4.979,4.977v13.956c0,2.373-2.605,4.979-4.979,4.979
	c-1.105,0-2,0.895-2,2v5.638l-7.052-7.052c-0.376-0.376-0.884-0.586-1.415-0.586H23.554c-2.373,0-4.978-2.605-4.978-4.979v-1.216
	l3.763-3.762h15.17c6.525,0,12.467-5.942,12.467-12.466v-1.489H51.465 M37.509,2.443H9.598c-3.488,0-6.977,3.489-6.977,6.979v13.956
	c0,3.487,3.488,6.977,6.977,6.977v10.467l10.467-10.467h17.444c3.489,0,6.979-3.489,6.979-6.977V9.422
	C44.487,5.933,40.998,2.443,37.509,2.443 M51.465,19.889h-3.489v3.489c0,5.379-5.086,10.466-10.467,10.466H21.511l-4.935,4.934
	v2.044c0,3.489,3.488,6.979,6.978,6.979h17.444l10.467,10.466V47.8c3.489,0,6.979-3.489,6.979-6.979V26.865
	C58.443,23.378,54.954,19.889,51.465,19.889"/>
<text transform="matrix(1 0 0 1 17.8745 23.8589)" fill="#fff" font-family="'FZLTHJW--GB1-0'" font-size="18.5739">?</text>
</svg>
