<?xml version="1.0" encoding="utf-8"?>
<!-- Generator: Adobe Illustrator 16.0.0, SVG Export Plug-In . SVG Version: 6.00 Build 0)  -->
<!DOCTYPE svg PUBLIC "-//W3C//DTD SVG 1.1//EN" "http://www.w3.org/Graphics/SVG/1.1/DTD/svg11.dtd">
<svg version="1.1" id="图层_1" xmlns="http://www.w3.org/2000/svg" xmlns:xlink="http://www.w3.org/1999/xlink" x="0px" y="0px"
	 width="60px" height="60px" viewBox="0 0 60 60" enable-background="new 0 0 60 60" xml:space="preserve">
<rect x="2" y="7.421" fill="#fff" width="26.5" height="5.954"/>
<path fill="#D66D6C" stroke="#fff" stroke-width="3" stroke-miterlimit="10" d="M43.452,28.43
	c-5.919,0-10.735-4.815-10.735-10.735c0-5.92,4.816-10.735,10.735-10.735c5.92,0,10.735,4.815,10.735,10.735
	C54.188,23.615,49.372,28.43,43.452,28.43 M43.452,7.893c-5.405,0-9.802,4.396-9.802,9.801c0,5.405,4.396,9.802,9.802,9.802
	s9.801-4.396,9.801-9.802C53.253,12.29,48.857,7.893,43.452,7.893"/>
<rect x="49.514" y="26.798" transform="matrix(0.7634 0.646 -0.646 0.7634 30.2689 -28.1)" fill="#D66D6C" stroke="#FFFFFF" stroke-width="3" stroke-miterlimit="10" width="7.948" height="0.933"/>
<rect x="1.875" y="24.241" fill="#fff" width="26.292" height="5.955"/>
<rect x="1.875" y="40.24" fill="#fff" width="56.708" height="5.955"/>
</svg>
