<?xml version="1.0" encoding="utf-8"?>
<!-- Generator: Adobe Illustrator 16.0.0, SVG Export Plug-In . SVG Version: 6.00 Build 0)  -->
<!DOCTYPE svg PUBLIC "-//W3C//DTD SVG 1.1//EN" "http://www.w3.org/Graphics/SVG/1.1/DTD/svg11.dtd">
<svg version="1.1" id="图层_1" xmlns="http://www.w3.org/2000/svg" xmlns:xlink="http://www.w3.org/1999/xlink" x="0px" y="0px"
	 width="60px" height="60px" viewBox="0 0 60 60" enable-background="new 0 0 60 60" xml:space="preserve">
<g>
	<path fill="#fff" d="M10.933,11.247c-3.552,3.553-5.508,8.275-5.508,13.3s1.956,9.748,5.509,13.301
		c3.552,3.553,8.275,5.509,13.3,5.509c3.403,0,6.667-0.9,9.523-2.584l14.355,14.355c0.292,0.291,0.688,0.455,1.101,0.455
		c0.412,0,0.808-0.164,1.1-0.455l4.523-4.523c0.292-0.291,0.456-0.687,0.456-1.101c0-0.413-0.164-0.809-0.456-1.1l-14.361-14.36
		c1.672-2.851,2.567-6.104,2.567-9.497c0-5.024-1.957-9.747-5.509-13.3s-8.275-5.509-13.299-5.509
		C19.208,5.738,14.485,7.694,10.933,11.247z M51.534,49.504l-2.322,2.323L36.331,38.945c0.412-0.349,0.814-0.712,1.201-1.098
		c0.394-0.394,0.765-0.805,1.118-1.227L51.534,49.504z M35.331,13.448c2.965,2.964,4.598,6.906,4.598,11.099
		c0,4.193-1.633,8.136-4.598,11.1c-2.964,2.965-6.905,4.597-11.098,4.597s-8.135-1.632-11.1-4.597
		c-2.964-2.964-4.597-6.907-4.597-11.1c0-4.192,1.632-8.135,4.597-11.099c2.965-2.965,6.907-4.597,11.1-4.597
		S32.367,10.483,35.331,13.448z"/>
	<path fill="#fff" d="M26.093,12.226c-0.132,0.558,0.213,1.116,0.771,1.248c2.047,0.484,3.921,1.532,5.416,3.027
		c2.149,2.149,3.333,5.007,3.333,8.046c0,3.04-1.184,5.898-3.333,8.048c-0.377,0.379-0.787,0.733-1.215,1.057
		c-0.458,0.344-0.551,0.993-0.206,1.452c0.344,0.457,0.995,0.55,1.454,0.205c0.506-0.381,0.988-0.8,1.434-1.247
		c2.542-2.541,3.94-5.92,3.94-9.515c0-3.594-1.398-6.973-3.94-9.514c-1.768-1.768-3.982-3.005-6.405-3.578
		C26.784,11.322,26.225,11.668,26.093,12.226z"/>
	<path fill="#fff" d="M27.688,35.394c-4.075,1.293-8.481,0.222-11.502-2.799c-2.149-2.15-3.333-5.008-3.333-8.048
		c0-3.039,1.184-5.896,3.333-8.046c1.45-1.451,3.263-2.483,5.241-2.984c0.555-0.141,0.891-0.704,0.751-1.261
		c-0.141-0.555-0.706-0.892-1.261-0.751c-2.339,0.593-4.483,1.813-6.198,3.528c-2.541,2.541-3.94,5.92-3.94,9.514
		c0,3.595,1.399,6.974,3.94,9.515c3.571,3.57,8.781,4.839,13.597,3.31c0.442-0.141,0.724-0.549,0.724-0.988
		c0-0.104-0.015-0.21-0.049-0.315C28.817,35.522,28.233,35.22,27.688,35.394z"/>
	<path fill="#fff" d="M15.319,22.484c-0.13,0.559,0.219,1.114,0.777,1.244c0.559,0.129,1.116-0.22,1.244-0.777
		c0.297-1.288,0.951-2.466,1.89-3.406c0.203-0.202,0.304-0.468,0.304-0.733c0-0.265-0.101-0.531-0.304-0.733
		c-0.405-0.405-1.062-0.405-1.467,0C16.548,19.294,15.703,20.817,15.319,22.484z"/>
	<path fill="#fff" d="M23.529,17.509c0.536-0.053,0.936-0.504,0.936-1.032c0-0.033-0.001-0.068-0.005-0.102
		c-0.056-0.57-0.564-0.987-1.134-0.932c-0.697,0.069-1.388,0.219-2.052,0.444c-0.542,0.186-0.832,0.773-0.648,1.316
		c0.185,0.544,0.774,0.833,1.316,0.648C22.456,17.678,22.99,17.563,23.529,17.509z"/>
</g>
</svg>
