<?xml version="1.0" encoding="utf-8"?>
<!-- Generator: Adobe Illustrator 16.0.0, SVG Export Plug-In . SVG Version: 6.00 Build 0)  -->
<!DOCTYPE svg PUBLIC "-//W3C//DTD SVG 1.1//EN" "http://www.w3.org/Graphics/SVG/1.1/DTD/svg11.dtd">
<svg version="1.1" id="图层_1" xmlns="http://www.w3.org/2000/svg" xmlns:xlink="http://www.w3.org/1999/xlink" x="0px" y="0px"
	 width="60px" height="60px" viewBox="0 0 60 60" enable-background="new 0 0 60 60" xml:space="preserve">
<path fill="#FFFFFF" stroke="#FFFFFF" stroke-width="2" stroke-miterlimit="10" d="M43.522,57.752c-5.226,0-9.477-4.252-9.477-9.478
	c0-5.227,4.251-9.477,9.477-9.477c5.227,0,9.478,4.25,9.478,9.477C53,53.5,48.749,57.752,43.522,57.752 M43.522,41.026
	c-3.996,0-7.247,3.252-7.247,7.248s3.251,7.247,7.247,7.247s7.248-3.251,7.248-7.247S47.519,41.026,43.522,41.026"/>
<path fill="#FFFFFF" stroke="#FFFFFF" stroke-width="2" stroke-miterlimit="10" d="M15.648,39.912c-5.226,0-9.478-4.252-9.478-9.479
	c0-5.226,4.252-9.477,9.478-9.477c5.226,0,9.478,4.251,9.478,9.477C25.126,35.66,20.875,39.912,15.648,39.912 M15.648,23.187
	c-3.996,0-7.247,3.251-7.247,7.247c0,3.997,3.251,7.248,7.247,7.248s7.248-3.251,7.248-7.248
	C22.896,26.438,19.645,23.187,15.648,23.187"/>
<path fill="#FFFFFF" stroke="#FFFFFF" stroke-width="2" stroke-miterlimit="10" d="M43.522,20.957c-5.226,0-9.477-4.252-9.477-9.478
	c0-5.225,4.251-9.477,9.477-9.477c5.227,0,9.478,4.252,9.478,9.477C53,16.705,48.749,20.957,43.522,20.957 M43.522,4.231
	c-3.996,0-7.247,3.251-7.247,7.247c0,3.997,3.251,7.248,7.247,7.248s7.248-3.251,7.248-7.248
	C50.771,7.483,47.519,4.231,43.522,4.231"/>
<rect x="27.913" y="11.812" transform="matrix(0.6101 0.7923 -0.7923 0.6101 27.9203 -14.8289)" fill="#FFFFFF" stroke="#FFFFFF" stroke-width="2" stroke-miterlimit="10" width="2.23" height="18.288"/>
<rect x="21.105" y="38.239" transform="matrix(0.774 0.6332 -0.6332 0.774 31.4813 -9.4865)" fill="#FFFFFF" stroke="#FFFFFF" stroke-width="2" stroke-miterlimit="10" width="15.848" height="2.23"/>
</svg>
