<?xml version="1.0" encoding="utf-8"?>
<!-- Generator: Adobe Illustrator 16.0.0, SVG Export Plug-In . SVG Version: 6.00 Build 0)  -->
<!DOCTYPE svg PUBLIC "-//W3C//DTD SVG 1.1//EN" "http://www.w3.org/Graphics/SVG/1.1/DTD/svg11.dtd">
<svg version="1.1" id="图形" xmlns="http://www.w3.org/2000/svg" xmlns:xlink="http://www.w3.org/1999/xlink" x="0px" y="0px"
	 width="521.269px" height="521.27px" viewBox="251.365 251.365 521.269 521.27"
	 enable-background="new 251.365 251.365 521.269 521.27" xml:space="preserve">
<path fill="#515151" d="M756.345,316.523c-8.992,0-16.29,7.298-16.29,16.29v53.594C694.671,304.535,607.131,251.365,512,251.365
	c-143.707,0-260.634,116.928-260.634,260.635S368.292,772.635,512,772.635c107.023,0,204.762-67.081,243.271-166.904
	c3.226-8.405-0.944-17.82-9.351-21.079c-8.373-3.225-17.821,0.945-21.047,9.351C691.186,681.347,605.632,740.055,512,740.055
	c-125.724,0-228.055-102.332-228.055-228.056S386.276,283.944,512,283.944c87.802,0,167.882,51.932,205.348,130.317h-58.74
	c-8.992,0-16.29,7.298-16.29,16.29s7.298,16.29,16.29,16.29h97.738c8.991,0,16.289-7.298,16.289-16.29v-97.738
	C772.634,323.821,765.336,316.523,756.345,316.523z"/>
</svg>
