<?xml version="1.0" encoding="utf-8"?>
<!-- Generator: Adobe Illustrator 17.0.0, SVG Export Plug-In . SVG Version: 6.00 Build 0)  -->
<!DOCTYPE svg PUBLIC "-//W3C//DTD SVG 1.1//EN" "http://www.w3.org/Graphics/SVG/1.1/DTD/svg11.dtd">
<svg version="1.1" id="图层_1" xmlns="http://www.w3.org/2000/svg" xmlns:xlink="http://www.w3.org/1999/xlink" x="0px" y="0px"
	 width="128px" height="128px" viewBox="0 0 128 128" enable-background="new 0 0 128 128" xml:space="preserve">
<path fill="#FFFFFF" d="M102.845,9.304H24.709c-10.694,0-19.393,8.699-19.393,19.393v48.332c0,10.694,8.699,19.393,19.393,19.393
	h34.196c4.111,7.914,10.137,14.071,17.966,18.337c7.763,4.228,15.338,5.458,18.573,5.984c0.393,0.062,0.787,0.093,1.176,0.093
	c2.723,0,5.265-1.52,6.528-4.007c1.442-2.84,0.883-6.291-1.384-8.528c-4.018-3.968-6.312-7.647-7.882-11.879h8.963
	c10.694,0,19.395-8.699,19.395-19.393V28.698C122.24,18.004,113.539,9.304,102.845,9.304z M114.914,77.029
	c0,6.639-5.431,12.068-12.069,12.068H84.65c-0.023,0.373-0.125,0.755-0.045,1.128c1.936,9.261,4.689,16.057,12.012,23.288
	c-7.165-1.161-25.144-4.526-33.01-24.416H24.709c-6.639,0-12.069-5.429-12.069-12.068V28.698c0-6.641,5.431-12.07,12.069-12.07
	h78.136c6.639,0,12.069,5.429,12.069,12.07V77.029z"/>
<path fill="#FFFFFF" d="M101.761,22.845h-75.52c-1.235,0-2.237,0.925-2.237,2.064v22.288c0,1.141,1.002,2.067,2.237,2.067h75.52
	c1.235,0,2.235-0.926,2.235-2.067V24.909C103.996,23.77,102.996,22.845,101.761,22.845z M99.524,45.133H28.477V26.974h71.047V45.133
	z"/>
<path fill="#FFFFFF" d="M101.761,53.833h-75.52c-1.235,0-2.237,0.925-2.237,2.064v22.288c0,1.141,1.002,2.067,2.237,2.067h75.52
	c1.235,0,2.235-0.926,2.235-2.067V55.897C103.996,54.758,102.996,53.833,101.761,53.833z M99.524,76.121H28.477V57.962h71.047
	V76.121z"/>
</svg>
