<?xml version="1.0" encoding="utf-8"?>
<!-- Generator: Adobe Illustrator 17.0.0, SVG Export Plug-In . SVG Version: 6.00 Build 0)  -->
<svg version="1.2" baseProfile="tiny" id="图层_1"
	 xmlns="http://www.w3.org/2000/svg" xmlns:xlink="http://www.w3.org/1999/xlink" x="0px" y="0px" width="128px" height="128px"
	 viewBox="0 0 128 128" xml:space="preserve">
<path fill="#FFFFFF" d="M64.281,3.637c-22.02,0-39.937,17.917-39.937,39.94c0,9.022,2.956,17.542,8.551,24.637
	c4.145,5.259,8.118,11.068,11.479,16.8l0.054,0.093v23.387c0,2.185,1.774,3.957,3.958,3.957h4.427
	c0.248,5.509,4.761,9.912,10.332,9.912h2.275c5.573,0,10.081-4.403,10.329-9.912h4.428c2.184,0,3.958-1.772,3.958-3.957V85.113
	l0.054-0.099c3.411-5.809,7.272-11.463,11.482-16.799c5.596-7.094,8.548-15.614,8.548-24.639
	C104.22,21.554,86.306,3.637,64.281,3.637z M76.222,86.969v5.832h-23.88v-5.832H76.222z M52.342,104.537v-5.799h23.88v5.799H52.342z
	 M89.46,63.315c-3.961,5.02-7.628,10.306-10.928,15.741H67.25V55.735l17.535-17.537c1.158-1.159,1.158-3.037,0-4.196
	c-1.16-1.159-3.038-1.159-4.196,0L64.281,50.309L47.975,34.002c-1.158-1.159-3.036-1.159-4.196,0c-1.158,1.159-1.158,3.037,0,4.196
	l17.535,17.537v23.321H50.032c-3.278-5.396-7.025-10.802-10.924-15.742c-4.484-5.686-6.851-12.51-6.851-19.737
	c0-17.66,14.366-32.027,32.024-32.027c17.66,0,32.025,14.366,32.025,32.027C96.306,50.804,93.942,57.63,89.46,63.315z"/>
</svg>
