<?xml version="1.0" encoding="utf-8"?>
<!-- Generator: Adobe Illustrator 16.0.0, SVG Export Plug-In . SVG Version: 6.00 Build 0)  -->
<!DOCTYPE svg PUBLIC "-//W3C//DTD SVG 1.1//EN" "http://www.w3.org/Graphics/SVG/1.1/DTD/svg11.dtd">
<svg version="1.1" id="图层_1" xmlns="http://www.w3.org/2000/svg" xmlns:xlink="http://www.w3.org/1999/xlink" x="0px" y="0px"
	 width="60px" height="60px" viewBox="0 0 60 60" enable-background="new 0 0 60 60" xml:space="preserve">
<g opacity="0.6">
	<path fill="#FFFFFF" stroke="#FFFFFF" stroke-width="2" stroke-miterlimit="10" d="M56.008,29.597
		C49.97,21.067,40.14,15.975,29.713,15.975S9.457,21.067,3.419,29.597c-0.245,0.347-0.245,0.81,0,1.156
		c6.039,8.53,15.868,13.623,26.294,13.623s20.256-5.093,26.295-13.623C56.253,30.406,56.253,29.943,56.008,29.597z M29.713,42.376
		c-9.541,0-18.549-4.548-24.242-12.201c5.693-7.653,14.701-12.2,24.242-12.2s18.55,4.547,24.243,12.2
		C48.263,37.828,39.254,42.376,29.713,42.376z"/>
	<circle fill="#FFFFFF" stroke="#FFFFFF" stroke-width="2" stroke-miterlimit="10" cx="29.714" cy="30.175" r="9.469"/>
	<path fill="#FFFFFF" stroke="#FFFFFF" stroke-width="2" stroke-miterlimit="10" d="M47.686,49.699
		c-0.261,0-0.521-0.102-0.718-0.304L11.024,12.347c-0.385-0.396-0.375-1.029,0.021-1.414c0.396-0.384,1.029-0.375,1.414,0.021
		l35.943,37.049c0.385,0.396,0.375,1.029-0.021,1.414C48.188,49.605,47.937,49.699,47.686,49.699z"/>
</g>
</svg>
